<svg id="Layer_1" xmlns="http://www.w3.org/2000/svg" viewBox="-64 277.5 481.5 238.5"><style>.st0{fill:#fff}.st1,.st2{fill:#fff;stroke:#fff;stroke-width:1.5;stroke-miterlimit:10}.st2{stroke-width:2}</style><g id="XMLID_50_"><path id="XMLID_51_" class="st0" d="M-38.4 406.8V301h5.5l59.5 95.8V301H32v105.8h-5.5l-59.5-96v96h-5.4z"/><path id="XMLID_53_" class="st0" d="M76.4 401.3h59.5l-37.4-88.1-39.8 93.6h-5.8l45.6-107.7 45.6 107.7H76.4v-5.5z"/><path id="XMLID_55_" class="st0" d="M164.9 406.8V301h5.5v105.8h-5.5zm67.5 0L176.2 351l50.4-50h7.8L184 351l56.2 55.8h-7.8z"/><path id="XMLID_58_" class="st1" d="M261 301h38.5v4.1h-33.8v57.6H294v4.1h-28.2v36h33.8v4.1H261V301z"/><path id="XMLID_60_" class="st0" d="M341.2 406.8h-13.9V301h13.9c18 0 32.4 4.7 43.1 14.2s16.1 22.4 16.1 38.7c0 16.3-5.4 29.2-16.1 38.7-10.7 9.4-25 14.2-43.1 14.2zm0-5.5c16.4 0 29.5-4.2 39.1-12.6 9.7-8.4 14.5-20 14.5-34.9 0-14.8-4.8-26.5-14.5-34.9s-22.7-12.6-39.1-12.6h-8.4v94.9l8.4.1z"/></g><g id="XMLID_17_"><path id="XMLID_18_" class="st2" d="M0 446.4h2.1v18.2l21-18.2h2.6L3 466.2l28.5 29.9h-2.9L2.1 468.5v27.6H0v-49.7z"/><path id="XMLID_20_" class="st2" d="M48.9 446.4h2.2v49.7h-2.2v-49.7z"/><path id="XMLID_22_" class="st2" d="M93.2 446.4v1.9H81.9v47.8h-2.2v-47.8H68.2v-1.9h25z"/><path id="XMLID_24_" class="st2" d="M129.7 496.8h-.7c-4.5 0-8.8-1.2-12.7-3.6-3.9-2.4-7-5.6-9.3-9.5-2.3-4-3.4-8.2-3.4-12.6 0-7 2.5-13.1 7.6-18.1 5.1-5.1 11.1-7.6 18.2-7.6 4.7 0 9.2 1.2 13.4 3.7v2.5c-4.2-2.8-8.6-4.2-13.4-4.2-6.5 0-12.1 2.3-16.7 7s-7 10.2-7 16.8 2.3 12.1 7 16.8c4.7 4.7 10.2 7 16.7 7 4.8 0 9.3-1.4 13.4-4.2v2.5c-4 2.2-8.4 3.5-13.1 3.5z"/><path id="XMLID_26_" class="st2" d="M198.6 446.4h2.2v49.7h-2.2v-18.9h-34v18.9h-2.2v-49.7h2.2v28.8h34v-28.8z"/><path id="XMLID_28_" class="st2" d="M221.3 446.4h17.8v1.9h-15.6v27h13v1.9h-13v16.9h15.6v1.9h-17.8v-49.6z"/><path id="XMLID_30_" class="st2" d="M292.9 446.4h1.9v50.4l-36.6-45V496h-1.9v-50.4l36.6 44.9v-44.1z"/><path id="XMLID_36_" class="st2" d="M331.2 449c-1.7-1.1-3.7-1.6-5.9-1.6s-4 .7-5.5 2-2.3 3.2-2.3 5.5v.3c0 2.8 1.5 5.3 4.6 7.6 1.3 1 2.8 1.9 4.5 2.9s3.3 2 5 3c1.7 1.1 3.2 2.2 4.5 3.4 1.3 1.2 2.5 2.7 3.3 4.5.9 1.8 1.3 3.7 1.3 5.8v.7c0 4.2-1.4 7.5-4.3 10-2.8 2.5-6.4 3.7-10.6 3.7-5.5 0-9.8-2.3-12.8-6.8v-3.6c1.1 2.5 2.8 4.6 5.1 6.1 2.2 1.6 5 2.4 8.3 2.4s6.2-1.1 8.6-3.2 3.6-4.9 3.6-8.5v-.4c0-2.2-.6-4.2-1.7-6.1-1.1-1.8-2.6-3.3-4.3-4.5-1.7-1.2-3.6-2.4-5.6-3.7-2-1.3-3.9-2.5-5.6-3.6-1.7-1.1-3.2-2.5-4.3-4.2-1.1-1.7-1.7-3.5-1.7-5.5v-.5c0-3.1 1-5.5 3-7.1s4.4-2.5 7.4-2.5c4.1 0 7.3 1.5 9.7 4.5v3.4c-1.2-1.5-2.6-2.9-4.3-4z"/></g></svg>